<svg width="230" height="230" viewBox="0 0 230 230" fill="none" xmlns="http://www.w3.org/2000/svg">
<path d="M115 30H200V115C200 161.944 161.944 200 115 200C68.0558 200 30 161.944 30 115C30 68.0558 68.0558 30 115 30Z" stroke="#8F00FF" stroke-width="30"/>
<path fill-rule="evenodd" clip-rule="evenodd" d="M133.255 149.933C137.941 154.619 145.539 154.619 150.226 149.933L150.933 149.225C155.619 144.539 155.619 136.941 150.933 132.255L133.255 114.577L150.933 96.8996C155.619 92.2133 155.619 84.6153 150.932 79.929L150.225 79.2219C145.539 74.5356 137.941 74.5356 133.255 79.2219L115.577 96.8995L97.1925 78.5147C92.5062 73.8284 84.9083 73.8284 80.222 78.5147L79.5149 79.2218C74.8286 83.9081 74.8286 91.5061 79.5149 96.1924L97.8996 114.577L79.5147 132.962C74.8284 137.648 74.8284 145.246 79.5147 149.933L80.2218 150.64C84.9081 155.326 92.5061 155.326 97.1924 150.64L115.577 132.255L133.255 149.933ZM115.577 132.255L133.255 114.577L115.577 96.8995L97.8996 114.577L115.577 132.255Z" fill="#FF4500"/>
</svg>
