<svg width="250" height="250" viewBox="0 0 250 250" fill="none" xmlns="http://www.w3.org/2000/svg">
<path fill-rule="evenodd" clip-rule="evenodd" d="M143.255 159.933C147.941 164.619 155.539 164.619 160.226 159.933L160.933 159.225C165.619 154.539 165.619 146.941 160.933 142.255L143.255 124.577L160.933 106.9C165.619 102.213 165.619 94.6153 160.932 89.929L160.225 89.2219C155.539 84.5356 147.941 84.5356 143.255 89.2219L125.577 106.899L107.193 88.5147C102.506 83.8284 94.9083 83.8284 90.222 88.5147L89.5149 89.2218C84.8286 93.9081 84.8286 101.506 89.5149 106.192L107.9 124.577L89.5147 142.962C84.8284 147.648 84.8284 155.246 89.5147 159.933L90.2218 160.64C94.9081 165.326 102.506 165.326 107.192 160.64L125.577 142.255L143.255 159.933ZM125.577 142.255L143.255 124.577L125.577 106.899L107.9 124.577L125.577 142.255Z" fill="#989898"/>
<path d="M40 125C40 78.0558 78.0558 40 125 40H210V125C210 171.944 171.944 210 125 210C78.0558 210 40 171.944 40 125Z" stroke="#989898" stroke-width="30"/>
</svg>
